<?xml version="1.0" standalone="no"?><!DOCTYPE svg PUBLIC "-//W3C//DTD SVG 1.1//EN" "http://www.w3.org/Graphics/SVG/1.1/DTD/svg11.dtd"><svg t="1540953173190" class="icon" style="" viewBox="0 0 1024 1024" version="1.1" xmlns="http://www.w3.org/2000/svg" p-id="3509" xmlns:xlink="http://www.w3.org/1999/xlink" width="200" height="200"><defs><style type="text/css"></style></defs><path d="M207.91 795.702c25.103 1.767 45.748 7.147 61.894 16.146 12.53-19.762 26.911-49.32 43.057-88.805 1.766-7.147 6.265-13.455 13.455-18.837 3.574 0 5.382-0.883 5.382-2.692-5.382-5.382-25.145-10.763-59.204-16.145-16.145 50.247-37.674 86.996-64.584 110.333zM716.521 666.531l-51.13 26.91c39.44 34.101 70.85 71.733 94.187 113.026l56.513-37.677c-19.763-19.719-52.939-53.82-99.57-102.259zM711.14 626.164c17.912 17.956 29.602 31.41 34.983 40.367l43.057-34.984c-41.29-34.058-73.583-60.969-96.877-80.731 3.572 1.808 10.764 2.691 21.527 2.691 10.766 1.808 18.838 2.689 24.219 2.689-3.614-12.528-4.497-39.439-2.69-80.731v-67.276c-1.807-30.485 0-52.896 5.383-67.277-14.382 3.616-42.174 4.5-83.423 2.691H536.22v-37.675h164.155c35.866 0 68.16 1.808 96.879 5.383v-56.513c-30.527 5.383-63.702 8.074-99.569 8.074H536.22c0-19.721 3.574-35.867 10.765-48.44 3.573-1.766 5.383-3.574 5.383-5.382-1.81-1.766-8.999-3.574-21.529-5.383-12.573 0-28.719-0.882-48.44-2.69 3.575 16.146 4.458 36.792 2.692 61.895H331.699c-46.673 0-78.966-2.691-96.878-8.074v53.822c8.957-1.766 42.132-2.691 99.57-2.691h150.7v37.675H363.992c-41.292 0-65.511-0.883-72.659-2.691v5.382c3.574 21.529 5.382 41.292 5.382 59.203v75.35c-1.808 25.145-3.616 44.866-5.382 59.205v16.145h24.22c14.338-1.765 32.293-3.573 53.821-5.381H485.09v40.366a4191.158 4191.158 0 0 1-150.7 2.691c-46.674 0-81.658-1.767-104.952-5.383 8.956 21.528 15.222 42.173 18.838 61.895 8.956-5.383 145.317-12.53 409.042-21.528a537.041 537.041 0 0 0 53.822-2.694zM485.09 510.45H347.846v-43.058H485.09v43.058z m0-80.733H347.846v-45.748H485.09v45.748z m51.13-45.748h148.01v45.748H536.22v-45.748z m0 83.423h148.01v43.058H536.22v-43.058z m0 83.423h142.627l-32.293 21.528 29.602 16.146H536.22v-37.674zM627.716 709.588c1.767 50.248-23.336 71.733-75.349 64.586h-80.733c-37.676 1.766-53.821-7.189-48.439-26.911V714.97c0-17.912 4.457-30.484 13.455-37.675l2.691-2.691c-12.572-3.573-36.792-6.264-72.659-8.072v16.147c0 8.997 0.883 18.835 2.691 29.602v51.129c-7.19 43.059 28.677 62.777 107.643 59.203h86.114c41.249 0 69.043-5.382 83.423-16.145 16.147-8.999 30.485-30.528 43.057-64.588-23.336 0-43.98-10.763-61.894-32.292z" p-id="3510"></path><path d="M520.074 741.88l56.512-18.837c-8.999-21.529-20.645-45.748-34.983-72.658L485.09 663.84c17.912 30.528 29.601 56.513 34.984 78.04z" p-id="3511"></path><path d="M512 0.006C229.234 0.006 0.006 229.234 0.006 512c0 282.767 229.228 511.994 511.994 511.994 282.767 0 511.994-229.228 511.994-511.994S794.767 0.006 512 0.006z m315.817 827.811c-41.039 41.039-88.811 73.251-141.987 95.743-55.02 23.273-113.506 35.073-173.83 35.073-60.324 0-118.809-11.8-173.83-35.072-53.177-22.492-100.948-54.704-141.987-95.743-41.04-41.039-73.252-88.811-95.744-141.987C77.167 630.809 65.367 572.324 65.367 512c0-60.324 11.8-118.809 35.072-173.83 22.492-53.177 54.705-100.948 95.744-141.987 41.039-41.04 88.811-73.252 141.987-95.744C393.191 77.167 451.676 65.367 512 65.367c60.324 0 118.81 11.8 173.83 35.072 53.177 22.492 100.948 54.705 141.987 95.744s73.251 88.811 95.743 141.987c23.272 55.021 35.072 113.506 35.072 173.83 0 60.324-11.8 118.809-35.072 173.83-22.492 53.177-54.704 100.948-95.743 141.987z" p-id="3512"></path></svg>